<mxfile host="app.diagrams.net" agent="Mozilla/5.0 (Windows NT 10.0; Win64; x64) AppleWebKit/537.36 (KHTML, like Gecko) Chrome/131.0.0.0 Safari/537.36 Edg/131.0.0.0" version="25.0.3">
  <diagram name="第 1 页" id="B1vgLXbj5i8AOxVK_GvT">
    <mxGraphModel dx="2704" dy="1278" grid="1" gridSize="10" guides="1" tooltips="1" connect="1" arrows="1" fold="1" page="1" pageScale="1" pageWidth="827" pageHeight="1169" math="0" shadow="0">
      <root>
        <mxCell id="0" />
        <mxCell id="1" parent="0" />
        <mxCell id="Kcj3ex0ju45MOm9ofDhS-6" value="UploadChunkItem" style="swimlane;fontStyle=0;childLayout=stackLayout;horizontal=1;startSize=30;horizontalStack=0;resizeParent=1;resizeParentMax=0;resizeLast=0;collapsible=1;marginBottom=0;whiteSpace=wrap;html=1;" parent="1" vertex="1">
          <mxGeometry x="-620" y="520" width="140" height="270" as="geometry" />
        </mxCell>
        <mxCell id="Kcj3ex0ju45MOm9ofDhS-7" value="chunkNumber" style="text;strokeColor=none;fillColor=none;align=left;verticalAlign=middle;spacingLeft=4;spacingRight=4;overflow=hidden;points=[[0,0.5],[1,0.5]];portConstraint=eastwest;rotatable=0;whiteSpace=wrap;html=1;" parent="Kcj3ex0ju45MOm9ofDhS-6" vertex="1">
          <mxGeometry y="30" width="140" height="30" as="geometry" />
        </mxCell>
        <mxCell id="Kcj3ex0ju45MOm9ofDhS-8" value="totalChunks" style="text;strokeColor=none;fillColor=none;align=left;verticalAlign=middle;spacingLeft=4;spacingRight=4;overflow=hidden;points=[[0,0.5],[1,0.5]];portConstraint=eastwest;rotatable=0;whiteSpace=wrap;html=1;" parent="Kcj3ex0ju45MOm9ofDhS-6" vertex="1">
          <mxGeometry y="60" width="140" height="30" as="geometry" />
        </mxCell>
        <mxCell id="Kcj3ex0ju45MOm9ofDhS-9" value="chunkSize" style="text;strokeColor=none;fillColor=none;align=left;verticalAlign=middle;spacingLeft=4;spacingRight=4;overflow=hidden;points=[[0,0.5],[1,0.5]];portConstraint=eastwest;rotatable=0;whiteSpace=wrap;html=1;" parent="Kcj3ex0ju45MOm9ofDhS-6" vertex="1">
          <mxGeometry y="90" width="140" height="30" as="geometry" />
        </mxCell>
        <mxCell id="Kcj3ex0ju45MOm9ofDhS-10" value="currentChunkSize" style="text;strokeColor=none;fillColor=none;align=left;verticalAlign=middle;spacingLeft=4;spacingRight=4;overflow=hidden;points=[[0,0.5],[1,0.5]];portConstraint=eastwest;rotatable=0;whiteSpace=wrap;html=1;" parent="Kcj3ex0ju45MOm9ofDhS-6" vertex="1">
          <mxGeometry y="120" width="140" height="30" as="geometry" />
        </mxCell>
        <mxCell id="Kcj3ex0ju45MOm9ofDhS-11" value="totalSize" style="text;strokeColor=none;fillColor=none;align=left;verticalAlign=middle;spacingLeft=4;spacingRight=4;overflow=hidden;points=[[0,0.5],[1,0.5]];portConstraint=eastwest;rotatable=0;whiteSpace=wrap;html=1;" parent="Kcj3ex0ju45MOm9ofDhS-6" vertex="1">
          <mxGeometry y="150" width="140" height="30" as="geometry" />
        </mxCell>
        <mxCell id="Kcj3ex0ju45MOm9ofDhS-12" value="identifier" style="text;strokeColor=none;fillColor=none;align=left;verticalAlign=middle;spacingLeft=4;spacingRight=4;overflow=hidden;points=[[0,0.5],[1,0.5]];portConstraint=eastwest;rotatable=0;whiteSpace=wrap;html=1;" parent="Kcj3ex0ju45MOm9ofDhS-6" vertex="1">
          <mxGeometry y="180" width="140" height="30" as="geometry" />
        </mxCell>
        <mxCell id="Kcj3ex0ju45MOm9ofDhS-13" value="filename" style="text;strokeColor=none;fillColor=none;align=left;verticalAlign=middle;spacingLeft=4;spacingRight=4;overflow=hidden;points=[[0,0.5],[1,0.5]];portConstraint=eastwest;rotatable=0;whiteSpace=wrap;html=1;" parent="Kcj3ex0ju45MOm9ofDhS-6" vertex="1">
          <mxGeometry y="210" width="140" height="30" as="geometry" />
        </mxCell>
        <mxCell id="Kcj3ex0ju45MOm9ofDhS-14" value="relativePath" style="text;strokeColor=none;fillColor=none;align=left;verticalAlign=middle;spacingLeft=4;spacingRight=4;overflow=hidden;points=[[0,0.5],[1,0.5]];portConstraint=eastwest;rotatable=0;whiteSpace=wrap;html=1;" parent="Kcj3ex0ju45MOm9ofDhS-6" vertex="1">
          <mxGeometry y="240" width="140" height="30" as="geometry" />
        </mxCell>
        <mxCell id="Kcj3ex0ju45MOm9ofDhS-27" style="edgeStyle=orthogonalEdgeStyle;rounded=0;orthogonalLoop=1;jettySize=auto;html=1;" parent="1" source="Kcj3ex0ju45MOm9ofDhS-19" target="Kcj3ex0ju45MOm9ofDhS-26" edge="1">
          <mxGeometry relative="1" as="geometry" />
        </mxCell>
        <mxCell id="Kcj3ex0ju45MOm9ofDhS-19" value="请求：检查是否存在分片" style="rounded=0;whiteSpace=wrap;html=1;" parent="1" vertex="1">
          <mxGeometry x="110" y="520" width="140" height="40" as="geometry" />
        </mxCell>
        <mxCell id="Kcj3ex0ju45MOm9ofDhS-44" style="edgeStyle=orthogonalEdgeStyle;rounded=0;orthogonalLoop=1;jettySize=auto;html=1;entryX=0.5;entryY=0;entryDx=0;entryDy=0;" parent="1" source="Kcj3ex0ju45MOm9ofDhS-20" target="Kcj3ex0ju45MOm9ofDhS-38" edge="1">
          <mxGeometry relative="1" as="geometry" />
        </mxCell>
        <mxCell id="Kcj3ex0ju45MOm9ofDhS-20" value="上传分片" style="rounded=0;whiteSpace=wrap;html=1;" parent="1" vertex="1">
          <mxGeometry x="640" y="520" width="120" height="40" as="geometry" />
        </mxCell>
        <mxCell id="Kcj3ex0ju45MOm9ofDhS-29" value="" style="edgeStyle=orthogonalEdgeStyle;rounded=0;orthogonalLoop=1;jettySize=auto;html=1;exitX=0.5;exitY=1;exitDx=0;exitDy=0;" parent="1" source="Kcj3ex0ju45MOm9ofDhS-30" target="Kcj3ex0ju45MOm9ofDhS-28" edge="1">
          <mxGeometry relative="1" as="geometry" />
        </mxCell>
        <mxCell id="Kcj3ex0ju45MOm9ofDhS-32" value="存在" style="edgeLabel;html=1;align=center;verticalAlign=middle;resizable=0;points=[];" parent="Kcj3ex0ju45MOm9ofDhS-29" vertex="1" connectable="0">
          <mxGeometry x="-0.1088" y="-2" relative="1" as="geometry">
            <mxPoint as="offset" />
          </mxGeometry>
        </mxCell>
        <mxCell id="Kcj3ex0ju45MOm9ofDhS-31" value="存在" style="edgeStyle=orthogonalEdgeStyle;rounded=0;orthogonalLoop=1;jettySize=auto;html=1;" parent="1" source="Kcj3ex0ju45MOm9ofDhS-26" target="Kcj3ex0ju45MOm9ofDhS-30" edge="1">
          <mxGeometry relative="1" as="geometry" />
        </mxCell>
        <mxCell id="Kcj3ex0ju45MOm9ofDhS-34" style="edgeStyle=orthogonalEdgeStyle;rounded=0;orthogonalLoop=1;jettySize=auto;html=1;" parent="1" source="Kcj3ex0ju45MOm9ofDhS-26" target="Kcj3ex0ju45MOm9ofDhS-33" edge="1">
          <mxGeometry relative="1" as="geometry" />
        </mxCell>
        <mxCell id="Kcj3ex0ju45MOm9ofDhS-36" value="不存在" style="edgeLabel;html=1;align=center;verticalAlign=middle;resizable=0;points=[];" parent="Kcj3ex0ju45MOm9ofDhS-34" vertex="1" connectable="0">
          <mxGeometry x="-0.6546" y="-2" relative="1" as="geometry">
            <mxPoint x="-8" y="-2" as="offset" />
          </mxGeometry>
        </mxCell>
        <mxCell id="Kcj3ex0ju45MOm9ofDhS-26" value="检查数据库分片记录" style="rhombus;whiteSpace=wrap;html=1;" parent="1" vertex="1">
          <mxGeometry x="95" y="640" width="170" height="50" as="geometry" />
        </mxCell>
        <mxCell id="Kcj3ex0ju45MOm9ofDhS-28" value="返回 true" style="whiteSpace=wrap;html=1;" parent="1" vertex="1">
          <mxGeometry x="120" y="880" width="120" height="40" as="geometry" />
        </mxCell>
        <mxCell id="Kcj3ex0ju45MOm9ofDhS-35" style="edgeStyle=orthogonalEdgeStyle;rounded=0;orthogonalLoop=1;jettySize=auto;html=1;entryX=0;entryY=0.5;entryDx=0;entryDy=0;" parent="1" source="Kcj3ex0ju45MOm9ofDhS-30" target="Kcj3ex0ju45MOm9ofDhS-33" edge="1">
          <mxGeometry relative="1" as="geometry" />
        </mxCell>
        <mxCell id="Kcj3ex0ju45MOm9ofDhS-37" value="不存在" style="edgeLabel;html=1;align=center;verticalAlign=middle;resizable=0;points=[];" parent="Kcj3ex0ju45MOm9ofDhS-35" vertex="1" connectable="0">
          <mxGeometry x="-0.4189" y="-3" relative="1" as="geometry">
            <mxPoint x="9" y="-3" as="offset" />
          </mxGeometry>
        </mxCell>
        <mxCell id="Kcj3ex0ju45MOm9ofDhS-30" value="检查分片文件" style="rhombus;whiteSpace=wrap;html=1;" parent="1" vertex="1">
          <mxGeometry x="95" y="760" width="170" height="50" as="geometry" />
        </mxCell>
        <mxCell id="Kcj3ex0ju45MOm9ofDhS-33" value="返回 false" style="whiteSpace=wrap;html=1;" parent="1" vertex="1">
          <mxGeometry x="354" y="765" width="120" height="40" as="geometry" />
        </mxCell>
        <mxCell id="Kcj3ex0ju45MOm9ofDhS-45" style="edgeStyle=orthogonalEdgeStyle;rounded=0;orthogonalLoop=1;jettySize=auto;html=1;entryX=0.5;entryY=0;entryDx=0;entryDy=0;" parent="1" source="Kcj3ex0ju45MOm9ofDhS-38" target="Kcj3ex0ju45MOm9ofDhS-39" edge="1">
          <mxGeometry relative="1" as="geometry" />
        </mxCell>
        <mxCell id="Kcj3ex0ju45MOm9ofDhS-38" value="保存分片文件" style="rounded=0;whiteSpace=wrap;html=1;" parent="1" vertex="1">
          <mxGeometry x="640" y="630" width="120" height="40" as="geometry" />
        </mxCell>
        <mxCell id="Kcj3ex0ju45MOm9ofDhS-46" style="edgeStyle=orthogonalEdgeStyle;rounded=0;orthogonalLoop=1;jettySize=auto;html=1;entryX=0.5;entryY=0;entryDx=0;entryDy=0;" parent="1" source="Kcj3ex0ju45MOm9ofDhS-39" target="Kcj3ex0ju45MOm9ofDhS-42" edge="1">
          <mxGeometry relative="1" as="geometry" />
        </mxCell>
        <mxCell id="Kcj3ex0ju45MOm9ofDhS-39" value="保存分片记录到数据库" style="rounded=0;whiteSpace=wrap;html=1;" parent="1" vertex="1">
          <mxGeometry x="620" y="740" width="160" height="40" as="geometry" />
        </mxCell>
        <mxCell id="Kcj3ex0ju45MOm9ofDhS-47" style="edgeStyle=orthogonalEdgeStyle;rounded=0;orthogonalLoop=1;jettySize=auto;html=1;entryX=0.5;entryY=0;entryDx=0;entryDy=0;" parent="1" source="Kcj3ex0ju45MOm9ofDhS-42" target="Kcj3ex0ju45MOm9ofDhS-43" edge="1">
          <mxGeometry relative="1" as="geometry" />
        </mxCell>
        <mxCell id="Kcj3ex0ju45MOm9ofDhS-52" value="是" style="edgeLabel;html=1;align=center;verticalAlign=middle;resizable=0;points=[];" parent="Kcj3ex0ju45MOm9ofDhS-47" vertex="1" connectable="0">
          <mxGeometry x="-0.1451" y="-2" relative="1" as="geometry">
            <mxPoint as="offset" />
          </mxGeometry>
        </mxCell>
        <mxCell id="Kcj3ex0ju45MOm9ofDhS-50" value="" style="edgeStyle=orthogonalEdgeStyle;rounded=0;orthogonalLoop=1;jettySize=auto;html=1;entryX=1;entryY=0.5;entryDx=0;entryDy=0;" parent="1" source="Kcj3ex0ju45MOm9ofDhS-42" target="Kcj3ex0ju45MOm9ofDhS-49" edge="1">
          <mxGeometry relative="1" as="geometry">
            <Array as="points">
              <mxPoint x="850" y="870" />
              <mxPoint x="850" y="1070" />
            </Array>
          </mxGeometry>
        </mxCell>
        <mxCell id="Kcj3ex0ju45MOm9ofDhS-53" value="否" style="edgeLabel;html=1;align=center;verticalAlign=middle;resizable=0;points=[];" parent="Kcj3ex0ju45MOm9ofDhS-50" vertex="1" connectable="0">
          <mxGeometry x="-0.7855" y="2" relative="1" as="geometry">
            <mxPoint x="-11" y="2" as="offset" />
          </mxGeometry>
        </mxCell>
        <mxCell id="Kcj3ex0ju45MOm9ofDhS-42" value="检查是否已完成&lt;span style=&quot;background-color: initial;&quot;&gt;所有&lt;/span&gt;&lt;div&gt;&lt;span style=&quot;background-color: initial;&quot;&gt;分片的上传&lt;/span&gt;&lt;/div&gt;" style="rhombus;whiteSpace=wrap;html=1;" parent="1" vertex="1">
          <mxGeometry x="620" y="840" width="160" height="60" as="geometry" />
        </mxCell>
        <mxCell id="Kcj3ex0ju45MOm9ofDhS-51" style="edgeStyle=orthogonalEdgeStyle;rounded=0;orthogonalLoop=1;jettySize=auto;html=1;entryX=0.5;entryY=0;entryDx=0;entryDy=0;" parent="1" source="Kcj3ex0ju45MOm9ofDhS-43" target="Kcj3ex0ju45MOm9ofDhS-49" edge="1">
          <mxGeometry relative="1" as="geometry" />
        </mxCell>
        <mxCell id="Kcj3ex0ju45MOm9ofDhS-43" value="合并分片文件" style="rounded=0;whiteSpace=wrap;html=1;" parent="1" vertex="1">
          <mxGeometry x="640" y="960" width="120" height="40" as="geometry" />
        </mxCell>
        <mxCell id="Kcj3ex0ju45MOm9ofDhS-49" value="返回" style="whiteSpace=wrap;html=1;" parent="1" vertex="1">
          <mxGeometry x="640" y="1050" width="120" height="40" as="geometry" />
        </mxCell>
        <mxCell id="Kcj3ex0ju45MOm9ofDhS-56" value="" style="edgeStyle=orthogonalEdgeStyle;rounded=0;orthogonalLoop=1;jettySize=auto;html=1;entryX=0.5;entryY=0;entryDx=0;entryDy=0;" parent="1" source="Kcj3ex0ju45MOm9ofDhS-54" target="Kcj3ex0ju45MOm9ofDhS-57" edge="1">
          <mxGeometry relative="1" as="geometry">
            <mxPoint x="-305" y="640" as="targetPoint" />
          </mxGeometry>
        </mxCell>
        <mxCell id="Kcj3ex0ju45MOm9ofDhS-54" value="检查文件是否存在" style="rounded=0;whiteSpace=wrap;html=1;" parent="1" vertex="1">
          <mxGeometry x="-375" y="520" width="140" height="40" as="geometry" />
        </mxCell>
        <mxCell id="Kcj3ex0ju45MOm9ofDhS-60" value="" style="edgeStyle=orthogonalEdgeStyle;rounded=0;orthogonalLoop=1;jettySize=auto;html=1;" parent="1" source="Kcj3ex0ju45MOm9ofDhS-57" target="Kcj3ex0ju45MOm9ofDhS-59" edge="1">
          <mxGeometry relative="1" as="geometry" />
        </mxCell>
        <mxCell id="Kcj3ex0ju45MOm9ofDhS-61" value="是" style="edgeLabel;html=1;align=center;verticalAlign=middle;resizable=0;points=[];" parent="Kcj3ex0ju45MOm9ofDhS-60" vertex="1" connectable="0">
          <mxGeometry x="-0.3513" y="1" relative="1" as="geometry">
            <mxPoint as="offset" />
          </mxGeometry>
        </mxCell>
        <mxCell id="Kcj3ex0ju45MOm9ofDhS-63" value="" style="edgeStyle=orthogonalEdgeStyle;rounded=0;orthogonalLoop=1;jettySize=auto;html=1;" parent="1" source="Kcj3ex0ju45MOm9ofDhS-57" target="Kcj3ex0ju45MOm9ofDhS-62" edge="1">
          <mxGeometry relative="1" as="geometry" />
        </mxCell>
        <mxCell id="Kcj3ex0ju45MOm9ofDhS-64" value="否" style="edgeLabel;html=1;align=center;verticalAlign=middle;resizable=0;points=[];" parent="Kcj3ex0ju45MOm9ofDhS-63" vertex="1" connectable="0">
          <mxGeometry x="0.0105" y="1" relative="1" as="geometry">
            <mxPoint as="offset" />
          </mxGeometry>
        </mxCell>
        <mxCell id="Kcj3ex0ju45MOm9ofDhS-57" value="检查数据库文件hash" style="rhombus;whiteSpace=wrap;html=1;rounded=0;" parent="1" vertex="1">
          <mxGeometry x="-380" y="640" width="150" height="50" as="geometry" />
        </mxCell>
        <mxCell id="Kcj3ex0ju45MOm9ofDhS-59" value="返回：已存在" style="rounded=0;whiteSpace=wrap;html=1;" parent="1" vertex="1">
          <mxGeometry x="-360" y="760" width="110" height="40" as="geometry" />
        </mxCell>
        <mxCell id="Kcj3ex0ju45MOm9ofDhS-62" value="返回不存在" style="whiteSpace=wrap;html=1;rounded=0;" parent="1" vertex="1">
          <mxGeometry x="-175" y="643.75" width="120" height="42.5" as="geometry" />
        </mxCell>
      </root>
    </mxGraphModel>
  </diagram>
</mxfile>
